<svg width="20" height="20" viewBox="0 0 20 20" fill="none" xmlns="http://www.w3.org/2000/svg">
<path fill-rule="evenodd" clip-rule="evenodd" d="M1.94121 8.47C2.01548 8.32214 2.14535 8.20976 2.30235 8.15751C2.45934 8.10526 2.63065 8.11739 2.77871 8.19125L9.99996 11.8L17.22 8.19C17.2934 8.15248 17.3736 8.12986 17.4558 8.12347C17.538 8.11707 17.6207 8.12701 17.6991 8.15272C17.7775 8.17843 17.85 8.2194 17.9125 8.27327C17.9749 8.32713 18.0261 8.39283 18.0631 8.46657C18.1 8.54032 18.122 8.62064 18.1278 8.70293C18.1335 8.78521 18.1229 8.86782 18.0966 8.94599C18.0703 9.02416 18.0288 9.09635 17.9744 9.1584C17.9201 9.22044 17.854 9.27112 17.78 9.3075L10.28 13.0575C10.1931 13.1011 10.0972 13.1237 9.99996 13.1237C9.90275 13.1237 9.80688 13.1011 9.71996 13.0575L2.21996 9.3075C2.0721 9.23323 1.95973 9.10337 1.90747 8.94637C1.85522 8.78937 1.86735 8.61806 1.94121 8.47Z" fill="#D0D0D0"/>
</svg>
