<svg width="13" height="13" viewBox="0 0 13 13" fill="none" xmlns="http://www.w3.org/2000/svg">
<path d="M10.9687 0.812267C10.6455 0.812267 10.3355 0.940671 10.1069 1.16923C9.87838 1.39779 9.74997 1.70778 9.74997 2.03102C9.74997 2.35425 9.87838 2.66424 10.1069 2.8928C10.3355 3.12136 10.6455 3.24977 10.9687 3.24977C11.292 3.24977 11.6019 3.12136 11.8305 2.8928C12.0591 2.66424 12.1875 2.35425 12.1875 2.03102C12.1875 1.70778 12.0591 1.39779 11.8305 1.16923C11.6019 0.940671 11.292 0.812267 10.9687 0.812267ZM8.93747 2.03102C8.93741 1.55443 9.10493 1.093 9.41073 0.727451C9.71652 0.361903 10.1411 0.115518 10.6102 0.0314033C11.0793 -0.0527119 11.5631 0.030799 11.9768 0.267325C12.3906 0.503851 12.708 0.878331 12.8735 1.32525C13.039 1.77216 13.0422 2.26305 12.8823 2.71203C12.7225 3.16101 12.4098 3.5395 11.9991 3.78126C11.5884 4.02302 11.1058 4.11267 10.6356 4.03452C10.1655 3.95637 9.73782 3.7154 9.42741 3.35377L3.96903 5.88877C4.09446 6.28645 4.09446 6.71309 3.96903 7.11077L9.42741 9.64577C9.75553 9.26416 10.2136 9.01795 10.7129 8.95486C11.2122 8.89177 11.7172 9.01628 12.1299 9.30427C12.5427 9.59226 12.8338 10.0232 12.9469 10.5136C13.06 11.004 12.987 11.519 12.7421 11.9586C12.4972 12.3983 12.0977 12.7313 11.6212 12.8933C11.1447 13.0552 10.6251 13.0345 10.1629 12.8352C9.70084 12.6358 9.3292 12.272 9.12005 11.8142C8.9109 11.3565 8.87914 10.8374 9.03091 10.3575L3.57253 7.82252C3.30232 8.13742 2.94216 8.36201 2.54048 8.46609C2.1388 8.57016 1.71489 8.54872 1.32576 8.40466C0.936631 8.26059 0.600958 8.00081 0.363896 7.66025C0.126834 7.3197 -0.000244141 6.91471 -0.000244141 6.49977C-0.000244141 6.08483 0.126834 5.67984 0.363896 5.33928C0.600958 4.99873 0.936631 4.73895 1.32576 4.59488C1.71489 4.45081 2.1388 4.42937 2.54048 4.53345C2.94216 4.63752 3.30232 4.86212 3.57253 5.17702L9.03091 2.64202C8.96878 2.44431 8.93727 2.23826 8.93747 2.03102ZM2.03122 5.28102C1.70799 5.28102 1.398 5.40942 1.16944 5.63798C0.940875 5.86654 0.812471 6.17653 0.812471 6.49977C0.812471 6.823 0.940875 7.13299 1.16944 7.36155C1.398 7.59011 1.70799 7.71852 2.03122 7.71852C2.35445 7.71852 2.66445 7.59011 2.89301 7.36155C3.12157 7.13299 3.24997 6.823 3.24997 6.49977C3.24997 6.17653 3.12157 5.86654 2.89301 5.63798C2.66445 5.40942 2.35445 5.28102 2.03122 5.28102ZM10.9687 9.74977C10.6455 9.74977 10.3355 9.87817 10.1069 10.1067C9.87838 10.3353 9.74997 10.6453 9.74997 10.9685C9.74997 11.2917 9.87838 11.6017 10.1069 11.8303C10.3355 12.0589 10.6455 12.1873 10.9687 12.1873C11.292 12.1873 11.6019 12.0589 11.8305 11.8303C12.0591 11.6017 12.1875 11.2917 12.1875 10.9685C12.1875 10.6453 12.0591 10.3353 11.8305 10.1067C11.6019 9.87817 11.292 9.74977 10.9687 9.74977Z" fill="black"/>
</svg>
