<svg width="474" height="122" viewBox="0 0 474 122" fill="none" xmlns="http://www.w3.org/2000/svg">
<path d="M458 16H17V106" stroke="#E0E46F" stroke-width="3" stroke-linejoin="round" stroke-dasharray="10 10"/>
<circle cx="16" cy="16" r="16" transform="matrix(-1 0 0 1 474 0)" fill="#1D1D1D"/>
<path d="M446 16C446 22.6274 451.373 28 458 28C464.627 28 470 22.6274 470 16C470 9.37258 464.627 4 458 4C451.373 4 446 9.37258 446 16ZM463.634 16C463.634 19.1115 461.112 21.6339 458 21.6339C454.888 21.6339 452.366 19.1115 452.366 16C452.366 12.8885 454.888 10.3661 458 10.3661C461.112 10.3661 463.634 12.8885 463.634 16Z" fill="#E0E46F"/>
<circle cx="16" cy="16" r="16" transform="matrix(-1 0 0 1 33 90)" fill="#1D1D1D"/>
<path d="M5 106C5 112.627 10.3726 118 17 118C23.6274 118 29 112.627 29 106C29 99.3726 23.6274 94 17 94C10.3726 94 5 99.3726 5 106ZM22.6339 106C22.6339 109.112 20.1115 111.634 17 111.634C13.8885 111.634 11.3661 109.112 11.3661 106C11.3661 102.888 13.8885 100.366 17 100.366C20.1115 100.366 22.6339 102.888 22.6339 106Z" fill="#E0E46F"/>
</svg>
