<svg width="182" height="40" viewBox="0 0 182 40" fill="none" xmlns="http://www.w3.org/2000/svg">
<g clip-path="url(#clip0_563_201)">
<path d="M38.081 13.0412V4.12993L31.177 1.61328L25.1276 3.80883L19.078 1.61328L13.0285 3.80883L6.97902 1.61328L0.0750732 4.12993V13.0412L4.48145 14.6494L0.0750732 16.2549V25.1662L4.48145 26.7743L0.0750732 28.3798V37.291L6.97902 39.8077L13.0285 37.6122L19.078 39.8077L25.1276 37.6122L31.177 39.8077L38.081 37.291V28.3798L33.6746 26.7743L38.081 25.1662V16.2549L33.6746 14.6494L38.081 13.0412ZM25.1276 13.354L28.6878 14.6494L25.1276 15.9448L21.5674 14.6494L25.1276 13.354ZM19.078 2.52445L25.1276 4.72L19.078 6.91554L13.0285 4.72L19.078 2.52445ZM13.0285 13.354L16.5887 14.6494L13.0285 15.9448L9.4684 14.6494L13.0285 13.354ZM0.92951 4.73096L6.97902 2.53542L13.0258 4.73096L6.97902 6.92654L0.92951 4.73096ZM0.92951 24.5678V16.8559L6.97902 14.6604L13.0285 16.8559L19.078 14.6604L25.1276 16.8559L19.078 19.0515L13.0285 16.8559V24.5678L6.97902 22.3722L0.92951 24.5678ZM25.1276 25.49L28.6878 26.7853L25.1276 28.0807L21.5674 26.7853L25.1276 25.49ZM16.5805 26.7743L13.0203 28.0696L9.46017 26.7743L13.0285 25.49L16.5805 26.7743ZM13.0203 36.69L6.97354 34.4945L0.924032 36.69V28.9808L6.97354 26.7853L13.0231 28.9808L13.0203 36.69ZM19.0726 31.2012L13.0231 29.0055L19.0726 26.81L25.1221 29.0055L19.0726 31.2012ZM37.2212 29.0055V36.7174L31.1743 34.5219L25.1248 36.7174V28.9808L31.1743 26.7853L37.2212 29.0055ZM37.2212 16.8806V24.5925L31.1743 22.397L25.1248 24.5925V16.8559L31.1743 14.6604L37.2212 16.8806ZM31.177 6.93751L25.1276 4.74196L31.177 2.54639L37.2267 4.74196L31.177 6.93751Z" fill="white"/>
<path d="M51.6127 2.57812H58.0766V4.06864H55.6403V9.91244H54.0349V4.06864H51.6127V2.57812Z" fill="white"/>
<path d="M63.0807 2.4747C63.8235 2.49332 64.5445 2.73105 65.153 3.15817C65.7618 3.58526 66.2312 4.18277 66.5026 4.8759C66.774 5.56901 66.8355 6.327 66.6793 7.05495C66.5232 7.78292 66.1562 8.44853 65.6242 8.96851C65.0923 9.48848 64.4193 9.83973 63.6892 9.97829C62.9592 10.1168 62.2046 10.0366 61.5198 9.74748C60.8352 9.45839 60.2506 8.97336 59.8396 8.35306C59.4287 7.73276 59.2093 7.00476 59.209 6.26013C59.1995 5.75236 59.2939 5.24798 59.4864 4.77814C59.6787 4.30828 59.9651 3.88292 60.3279 3.52826C60.6909 3.17359 61.1222 2.89714 61.5956 2.71593C62.0691 2.53475 62.5747 2.45264 63.0807 2.4747ZM65.2858 6.26013C65.2813 5.823 65.1475 5.39701 64.9017 5.03585C64.6557 4.67472 64.3088 4.39457 63.9044 4.23072C63.5 4.06687 63.0561 4.02667 62.6289 4.11517C62.2019 4.20365 61.8103 4.41686 61.5037 4.72795C61.1972 5.03905 60.9896 5.43409 60.9068 5.86333C60.8239 6.29253 60.8696 6.73671 61.0383 7.1399C61.207 7.54307 61.4909 7.88723 61.8544 8.12896C62.2179 8.3707 62.6447 8.4992 63.0807 8.49829C63.3765 8.50421 63.6702 8.44979 63.9443 8.3384C64.2184 8.227 64.4669 8.06091 64.6751 7.85024C64.8829 7.63958 65.0461 7.38873 65.1543 7.11294C65.2625 6.83716 65.3137 6.54217 65.3047 6.24594L65.2858 6.26013Z" fill="white"/>
<path d="M69.2052 2.57812H70.905L73.0674 5.14751L75.23 2.57812H76.9062V9.91244H75.3432V4.59863L73.0674 7.37619L70.7774 4.61755V9.91244H69.2052V2.57812Z" fill="white"/>
<path d="M82.9554 4.00662C82.3629 4.00662 81.7948 4.24242 81.3761 4.66217C80.9571 5.08189 80.7219 5.65118 80.7219 6.24476C80.7219 6.83835 80.9571 7.40763 81.3761 7.82738C81.7948 8.2471 82.3629 8.4829 82.9554 8.4829C83.3402 8.48534 83.7195 8.39085 84.0587 8.20813C84.3978 8.02544 84.6855 7.76036 84.8959 7.43719L86.0481 8.43085C85.7069 8.93658 85.2435 9.34733 84.7011 9.62456C84.1583 9.90182 83.5546 10.0365 82.9458 10.016C80.7643 10.016 79.0646 8.50657 79.0646 6.23057C79.0643 5.72539 79.1652 5.22529 79.3608 4.75975C79.5566 4.29419 79.8433 3.87261 80.2043 3.51983C80.565 3.16705 80.9925 2.89022 81.4617 2.70567C81.9311 2.52109 82.4325 2.43249 82.9363 2.44512C83.5478 2.41516 84.1566 2.54564 84.7023 2.82365C85.2478 3.10167 85.7117 3.51756 86.0481 4.03027L84.8959 5.02395C84.6822 4.70604 84.393 4.44652 84.0541 4.26889C83.7152 4.09125 83.3377 4.00111 82.9554 4.00662Z" fill="white"/>
<path d="M88.1111 9.91244V2.57812H89.726V9.91244H88.1111ZM92.3606 2.57812H94.1407L91.5769 5.76738L94.6081 9.91244H92.7196L89.726 5.83362L92.3606 2.57812Z" fill="white"/>
<path d="M98.0548 7.47556L101.473 2.58288H103.079V9.91717H101.483V4.98663L98.0548 9.91244H96.4683V2.57812H98.0596L98.0548 7.47556Z" fill="white"/>
<path d="M107.451 7.47566L110.87 2.58298H112.48V9.91727H110.889V4.98673L107.461 9.91251H105.86V2.57822H107.451V7.47566ZM108.504 0.240723C108.495 0.332504 108.505 0.42518 108.532 0.513125C108.56 0.60107 108.606 0.682456 108.666 0.752358C108.726 0.822259 108.799 0.879213 108.882 0.919779C108.965 0.960342 109.055 0.983681 109.147 0.988355C109.239 0.983575 109.33 0.960302 109.413 0.919907C109.496 0.879512 109.571 0.822805 109.632 0.753137C109.693 0.68347 109.739 0.602252 109.769 0.514252C109.798 0.426249 109.81 0.333243 109.803 0.240723H110.974C110.95 0.710906 110.747 1.15395 110.406 1.47829C110.066 1.80263 109.614 1.98349 109.144 1.98349C108.674 1.98349 108.222 1.80263 107.882 1.47829C107.541 1.15395 107.338 0.710906 107.314 0.240723H108.504Z" fill="white"/>
<path d="M59.0632 24.3154H57.4626V18.4716H54.096V24.3154H52.4858V16.9858H59.0632V24.3154Z" fill="white"/>
<path d="M65.0408 16.8783C65.7836 16.896 66.5051 17.133 67.1144 17.5595C67.7236 17.9861 68.1938 18.5833 68.4659 19.2763C68.738 19.9694 68.8003 20.7275 68.6444 21.4558C68.4888 22.1841 68.1223 22.8502 67.5906 23.3706C67.0589 23.8911 66.3859 24.2428 65.6556 24.3817C64.9253 24.5206 64.1705 24.4406 63.4854 24.1516C62.8006 23.8626 62.2159 23.3776 61.8045 22.7572C61.3933 22.1368 61.1739 21.4085 61.1736 20.6637C61.1641 20.1564 61.2585 19.6524 61.4505 19.1829C61.6428 18.7134 61.9287 18.2882 62.291 17.9336C62.6532 17.579 63.084 17.3025 63.5569 17.121C64.0299 16.9395 64.5347 16.8569 65.0408 16.8783ZM67.2456 20.6637C67.2401 20.2268 67.1058 19.8013 66.8593 19.4408C66.613 19.0803 66.2656 18.8009 65.8612 18.6377C65.4565 18.4746 65.0129 18.4351 64.5859 18.5241C64.1592 18.6131 63.7681 18.8267 63.4621 19.138C63.156 19.4492 62.9487 19.8443 62.8664 20.2734C62.7838 20.7024 62.83 21.1464 62.9986 21.5493C63.1676 21.9522 63.4513 22.2961 63.8148 22.5376C64.178 22.7791 64.6048 22.9075 65.0408 22.9066C65.3353 22.91 65.6275 22.8535 65.8996 22.7407C66.1717 22.6278 66.4182 22.4609 66.6243 22.25C66.8302 22.0391 66.9916 21.7885 67.0983 21.5135C67.2052 21.2384 67.2554 20.9445 67.2456 20.6496V20.6637Z" fill="white"/>
<path d="M70.0833 24.3688V22.8924H70.4939C71.1361 22.8924 71.4383 22.5849 71.4383 21.7284V16.9966H77.1328V24.3261H75.532V18.4634H72.9777V21.8325C72.9777 23.3561 72.3165 24.3688 70.6498 24.3688H70.0833Z" fill="white"/>
<path d="M81.5339 21.8738L84.9523 16.9858H86.5531V24.3154H84.9618V19.3943L81.5339 24.3154H79.9426V16.9858H81.5339V21.8738Z" fill="white"/>
<path d="M88.649 16.9858H95.1129V18.4716H92.6907V24.3154H91.0901V18.4716H88.6631L88.649 16.9858Z" fill="white"/>
<path d="M97.2096 16.9858H102.758V18.4622H98.8293V19.8817H101.605V21.3012H98.8293V22.8202H102.805V24.3012H97.2144L97.2096 16.9858Z" fill="white"/>
<path d="M108.272 19.4748L110.128 16.9858H111.965L109.264 20.5962L112.097 24.3154H110.123L108.154 21.7602L106.19 24.3154H104.344L107.177 20.5962L104.467 16.9858H106.384L108.272 19.4748Z" fill="white"/>
<path d="M120.577 16.9858V24.3154H118.976V21.3344H115.61V24.3154H114V16.9858H115.61V19.8581H118.976V16.9858H120.577Z" fill="white"/>
<path d="M124.954 21.8738L128.373 16.9858H129.992V24.3154H128.401V19.3943L124.973 24.3154H123.382V16.9858H124.973L124.954 21.8738Z" fill="white"/>
<path d="M138.463 16.9858V24.3154H136.858V21.5142H134.823C133.515 21.5142 132.429 20.9369 132.429 19.3801V16.9858H134.035V19.1814C134.035 19.8249 134.445 20.0378 135.064 20.0378H136.858V16.9858H138.463Z" fill="white"/>
<path d="M141.244 16.9858H146.792V18.4622H142.859V19.8817H145.631V21.3012H142.859V22.8202H146.835V24.3012H141.244V16.9858Z" fill="white"/>
<path d="M152.24 18.4112C151.665 18.4376 151.122 18.6853 150.725 19.1025C150.327 19.5198 150.105 20.0746 150.105 20.6517C150.105 21.2287 150.327 21.7835 150.725 22.2008C151.122 22.618 151.665 22.8657 152.24 22.8922C152.625 22.8937 153.004 22.7989 153.343 22.6163C153.682 22.4336 153.97 22.169 154.181 21.8464L155.333 22.8354C154.992 23.3411 154.529 23.7519 153.986 24.0291C153.444 24.3063 152.84 24.441 152.231 24.4205C150.05 24.4205 148.35 22.9111 148.35 20.6351C148.349 20.1299 148.45 19.6298 148.646 19.1643C148.842 18.6987 149.128 18.2771 149.489 17.9244C149.85 17.5716 150.278 17.2948 150.747 17.1102C151.216 16.9256 151.717 16.837 152.222 16.8497C152.833 16.8206 153.441 16.9515 153.987 17.2295C154.532 17.5074 154.996 17.9228 155.333 18.4348L154.181 19.4285C153.967 19.1112 153.677 18.8521 153.339 18.6746C153 18.497 152.623 18.4065 152.24 18.4112Z" fill="white"/>
<path d="M157.378 24.3154V16.9858H158.993V24.3154H157.378ZM161.628 16.9858H163.408L160.844 20.1751L163.87 24.3154H161.982L158.988 20.2366L161.628 16.9858Z" fill="white"/>
<path d="M167.341 21.8738L170.76 16.9858H172.375V24.3154H170.778V19.3943L167.351 24.3154H165.75V16.9858H167.341V21.8738Z" fill="white"/>
<path d="M176.738 21.8741L180.151 16.9861H181.766V24.3157H180.175V19.3946L176.747 24.3157H175.142V16.9861H176.738V21.8741ZM177.79 14.6392C177.781 14.7313 177.79 14.8245 177.817 14.913C177.845 15.0015 177.89 15.0835 177.95 15.1539C178.01 15.2243 178.084 15.2817 178.167 15.3226C178.25 15.3634 178.34 15.3869 178.433 15.3915C178.525 15.3861 178.616 15.3623 178.699 15.3214C178.783 15.2805 178.857 15.2233 178.918 15.1533C178.979 15.0833 179.026 15.0017 179.055 14.9134C179.084 14.8252 179.096 14.7319 179.089 14.6392H180.26C180.236 15.1093 180.033 15.5524 179.692 15.8767C179.352 16.2011 178.9 16.3819 178.43 16.3819C177.96 16.3819 177.508 16.2011 177.168 15.8767C176.828 15.5524 176.624 15.1093 176.6 14.6392H177.79Z" fill="white"/>
<path d="M52.5049 37.2435H53.2558C53.4651 37.2722 53.6783 37.2505 53.8776 37.1806C54.0771 37.1109 54.2571 36.9944 54.403 36.8412L51.4189 31.3901H53.1895L55.2246 35.1758L56.8488 31.3901H58.5393L56.0274 37.1064C55.8585 37.5934 55.5379 38.0133 55.1129 38.3038C54.6877 38.5944 54.1806 38.7403 53.6665 38.7197H52.4861L52.5049 37.2435Z" fill="white"/>
<path d="M67.0476 31.3901V38.7056H65.4422V35.7293H62.0804V38.7056H60.4655V31.3901H62.0804V34.2623H65.4422V31.3901H67.0476Z" fill="white"/>
<path d="M71.4434 36.283L74.862 31.3901H76.4769V38.7056H74.8856V33.7846L71.4434 38.7056H69.838V31.3901H71.4434V36.283Z" fill="white"/>
<path d="M79.2245 31.3901H82.303C83.7903 31.3901 84.6639 32.1803 84.6639 33.3207C84.6745 33.6659 84.5703 34.0047 84.3677 34.284C84.1651 34.5632 83.8757 34.767 83.5448 34.8633C83.9585 34.9199 84.3373 35.1265 84.6097 35.4437C84.8818 35.761 85.0289 36.1672 85.0227 36.5859C85.0227 37.9295 83.9462 38.7197 82.4069 38.7197H79.2009L79.2245 31.3901ZM82.0575 32.7199H80.8347V34.3808H82.0575C82.1764 34.3942 82.2967 34.3821 82.4107 34.3456C82.5246 34.3091 82.6296 34.249 82.7187 34.169C82.8078 34.089 82.8791 33.9911 82.928 33.8817C82.9767 33.7723 83.0018 33.6535 83.0018 33.5338C83.0302 33.0274 82.6431 32.7199 82.0622 32.7199H82.0575ZM82.2794 37.3806C82.8791 37.3806 83.3937 37.1064 83.3937 36.4817C83.3937 35.8571 82.8791 35.5921 82.2794 35.5921H80.8347V37.3806H82.2794Z" fill="white"/>
<path d="M87.313 31.3901H92.8611V32.8714H88.9136V34.2908H91.69V35.7104H88.9136V37.2339H92.8892V38.7056H87.3035L87.313 31.3901Z" fill="white"/>
<path d="M95.25 31.3901H98.1301C99.6506 31.3901 100.798 32.2467 100.798 33.7987C100.798 35.3506 99.627 36.1647 98.1301 36.1647H96.8649V38.7056H95.25V31.3901ZM99.1405 33.7987C99.142 33.6623 99.1139 33.5275 99.0584 33.4032C99.003 33.2787 98.9214 33.1677 98.819 33.0779C98.7168 32.9881 98.5965 32.9215 98.4663 32.8825C98.336 32.8435 98.1987 32.8332 98.0641 32.8523H96.8649V34.7876H98.0641C98.2012 34.8017 98.34 34.7864 98.471 34.7431C98.6018 34.6996 98.7221 34.6286 98.8237 34.5353C98.9254 34.442 99.0062 34.328 99.061 34.201C99.1154 34.0739 99.1425 33.9371 99.1405 33.7987Z" fill="white"/>
<path d="M106.228 32.8143C105.926 32.8005 105.624 32.8481 105.34 32.9545C105.057 33.0606 104.798 33.2237 104.579 33.433C104.36 33.6423 104.186 33.8941 104.067 34.1728C103.948 34.4516 103.887 34.7517 103.887 35.0548C103.887 35.3582 103.948 35.6581 104.067 35.9369C104.186 36.2159 104.36 36.4674 104.579 36.677C104.798 36.8863 105.057 37.0491 105.34 37.1555C105.624 37.2616 105.926 37.3094 106.228 37.2954C106.613 37.2969 106.992 37.202 107.331 37.0196C107.67 36.837 107.958 36.5723 108.168 36.2498L109.321 37.2433C108.978 37.7479 108.515 38.1575 107.972 38.4347C107.43 38.7117 106.827 38.8473 106.218 38.8284C104.032 38.8284 102.337 37.3145 102.337 35.043C102.337 34.5379 102.438 34.0377 102.634 33.5723C102.829 33.1067 103.116 32.685 103.477 32.3323C103.838 31.9796 104.265 31.7026 104.735 31.5182C105.204 31.3336 105.705 31.245 106.209 31.2576C106.82 31.2277 107.429 31.3582 107.975 31.6362C108.521 31.9142 108.984 32.3301 109.321 32.8428L108.168 33.8317C107.954 33.5145 107.665 33.2554 107.326 33.0777C106.988 32.9004 106.61 32.8098 106.228 32.8143Z" fill="white"/>
<path d="M112.994 36.283L116.412 31.3901H118.027V38.7056H116.431V33.7846L112.994 38.7056H111.393V31.3901H112.994V36.283Z" fill="white"/>
<path d="M120.077 31.3901H126.545V32.8807H124.109V38.7056H122.504V32.8807H120.077V31.3901Z" fill="white"/>
<path d="M128.656 31.3901H134.204V32.8714H130.266V34.2908H133.042V35.7104H130.266V37.2339H134.242V38.7056H128.651L128.656 31.3901Z" fill="white"/>
<path d="M135.805 31.3901H142.269V32.8807H139.833V38.7056H138.227V32.8807H135.805V31.3901Z" fill="white"/>
</g>
<defs>
<clipPath id="clip0_563_201">
<rect width="182" height="40" fill="white"/>
</clipPath>
</defs>
</svg>
