<svg width="474" height="122" viewBox="0 0 474 122" fill="none" xmlns="http://www.w3.org/2000/svg">
<path d="M16 16H457V106" stroke="#E0E46F" stroke-width="3" stroke-linejoin="round" stroke-dasharray="10 10"/>
<circle cx="16" cy="16" r="16" fill="#1D1D1D"/>
<path d="M28 16C28 22.6274 22.6274 28 16 28C9.37258 28 4 22.6274 4 16C4 9.37258 9.37258 4 16 4C22.6274 4 28 9.37258 28 16ZM10.3661 16C10.3661 19.1115 12.8885 21.6339 16 21.6339C19.1115 21.6339 21.6339 19.1115 21.6339 16C21.6339 12.8885 19.1115 10.3661 16 10.3661C12.8885 10.3661 10.3661 12.8885 10.3661 16Z" fill="#E0E46F"/>
<circle cx="457" cy="106" r="16" fill="#1D1D1D"/>
<path d="M469 106C469 112.627 463.627 118 457 118C450.373 118 445 112.627 445 106C445 99.3726 450.373 94 457 94C463.627 94 469 99.3726 469 106ZM451.366 106C451.366 109.112 453.888 111.634 457 111.634C460.112 111.634 462.634 109.112 462.634 106C462.634 102.888 460.112 100.366 457 100.366C453.888 100.366 451.366 102.888 451.366 106Z" fill="#E0E46F"/>
</svg>
