<svg width="2195" height="2267" viewBox="0 0 2195 2267" fill="none" xmlns="http://www.w3.org/2000/svg">
<g clip-path="url(#clip0_458_106)">
<g clip-path="url(#clip1_458_106)">
<path d="M2585.1 0L0 1292.81V1298.15L2595.78 0H2585.1Z" fill="#626262" fill-opacity="0.21"/>
<path d="M2369.24 0L0 1184.86V1190.2L2379.93 0H2369.24Z" fill="#626262" fill-opacity="0.21"/>
<path d="M2153.39 0L0 1076.91V1082.26L2164.07 0H2153.39Z" fill="#626262" fill-opacity="0.21"/>
<path d="M1937.55 0L0 968.969V974.311L1948.23 0H1937.55Z" fill="#626262" fill-opacity="0.21"/>
<path d="M1721.69 0L0 861.022V866.364L1732.38 0H1721.69Z" fill="#626262" fill-opacity="0.21"/>
<path d="M1505.84 0L0 753.076V758.418L1516.52 0H1505.84Z" fill="#626262" fill-opacity="0.21"/>
<path d="M1290 0L0 645.13V650.472L1300.68 0H1290Z" fill="#626262" fill-opacity="0.21"/>
<path d="M1074.14 0L0 537.173V542.526L1084.83 0H1074.14Z" fill="#626262" fill-opacity="0.21"/>
<path d="M858.289 0L0 429.227V434.569L868.973 0H858.289Z" fill="#626262" fill-opacity="0.21"/>
<path d="M642.435 0L0 321.281V326.623L653.12 0H642.435Z" fill="#626262" fill-opacity="0.21"/>
<path d="M426.591 0L0 213.335V218.677L437.276 0H426.591Z" fill="#626262" fill-opacity="0.21"/>
<path d="M210.738 0L0 105.388V110.731L221.422 0H210.738Z" fill="#626262" fill-opacity="0.21"/>
<path d="M0 0V2.78425L5.56851 0H0Z" fill="#626262" fill-opacity="0.21"/>
<path d="M2800.95 0L0 1400.75V1406.1L2811.63 0H2800.95Z" fill="#626262" fill-opacity="0.21"/>
<path d="M3016.8 0L0 1508.7V1514.04L3027.48 0H3016.8Z" fill="#626262" fill-opacity="0.21"/>
<path d="M3232.65 0L0 1616.65V1621.99L3243.33 0H3232.65Z" fill="#626262" fill-opacity="0.21"/>
<path d="M3448.5 0L0 1724.59V1729.94L3459.19 0H3448.5Z" fill="#626262" fill-opacity="0.21"/>
<path d="M3664.36 0L0 1832.55V1837.89L3675.04 0H3664.36Z" fill="#626262" fill-opacity="0.21"/>
<path d="M3880.2 0L0 1940.49V1945.84L3890.88 0H3880.2Z" fill="#626262" fill-opacity="0.21"/>
<path d="M4096.05 0L0 2048.44V2053.78L4106.74 0H4096.05Z" fill="#626262" fill-opacity="0.21"/>
<path d="M4311.91 0L0 2156.39V2161.73L4322.58 0H4311.91Z" fill="#626262" fill-opacity="0.21"/>
<path d="M0 2267.01H5.34223L4533.09 2.66619V0H4527.75L0 2264.33V2267.01Z" fill="#626262" fill-opacity="0.21"/>
<path d="M221.186 2267.01L4533.09 110.622V105.28L210.511 2267.01H221.186Z" fill="#626262" fill-opacity="0.21"/>
<path d="M437.04 2267.01L4533.09 218.569V213.226L426.355 2267.01H437.04Z" fill="#626262" fill-opacity="0.21"/>
<path d="M652.893 2267.01L4533.09 326.515V321.173L642.209 2267.01H652.893Z" fill="#626262" fill-opacity="0.21"/>
<path d="M868.747 2267.01L4533.09 434.462V429.12L858.062 2267.01H868.747Z" fill="#626262" fill-opacity="0.21"/>
<path d="M1084.59 2267.01L4533.09 542.408V537.065L1073.92 2267.01H1084.59Z" fill="#626262" fill-opacity="0.21"/>
<path d="M1300.44 2267.01L4533.09 650.354V645.011L1289.76 2267.01H1300.44Z" fill="#626262" fill-opacity="0.21"/>
<path d="M1516.3 2267.01L4533.09 758.301V752.958L1505.61 2267.01H1516.3Z" fill="#626262" fill-opacity="0.21"/>
<path d="M1732.15 2267.01L4533.09 866.246V860.904L1721.47 2267.01H1732.15Z" fill="#626262" fill-opacity="0.21"/>
<path d="M1948 2267.01L4533.09 974.193V968.85L1937.31 2267.01H1948Z" fill="#626262" fill-opacity="0.21"/>
<path d="M2163.85 2267.01L4533.09 1082.14V1076.8L2153.16 2267.01H2163.85Z" fill="#626262" fill-opacity="0.21"/>
<path d="M3.77793 0.462646H0V2266.75H3.77793V0.462646Z" fill="#626262" fill-opacity="0.21"/>
<path d="M154.885 0.462646H147.329V2266.75H154.885V0.462646Z" fill="#626262" fill-opacity="0.21"/>
<path d="M305.983 0.462646H298.427V2266.75H305.983V0.462646Z" fill="#626262" fill-opacity="0.21"/>
<path d="M457.09 0.462646H449.534V2266.75H457.09V0.462646Z" fill="#626262" fill-opacity="0.21"/>
<path d="M608.188 0.462646H600.632V2266.75H608.188V0.462646Z" fill="#626262" fill-opacity="0.21"/>
<path d="M759.295 0.462646H751.739V2266.75H759.295V0.462646Z" fill="#626262" fill-opacity="0.21"/>
<path d="M910.403 0.462646H902.847V2266.75H910.403V0.462646Z" fill="#626262" fill-opacity="0.21"/>
<path d="M1061.5 0.462646H1053.94V2266.75H1061.5V0.462646Z" fill="#626262" fill-opacity="0.21"/>
<path d="M1212.61 0.462646H1205.05V2266.75H1212.61V0.462646Z" fill="#626262" fill-opacity="0.21"/>
<path d="M1363.7 0.462646H1356.15V2266.75H1363.7V0.462646Z" fill="#626262" fill-opacity="0.21"/>
<path d="M1514.81 0.462646H1507.26V2266.75H1514.81V0.462646Z" fill="#626262" fill-opacity="0.21"/>
<path d="M1665.91 0.462646H1658.35V2266.75H1665.91V0.462646Z" fill="#626262" fill-opacity="0.21"/>
<path d="M1817.02 0.462646H1809.46V2266.75H1817.02V0.462646Z" fill="#626262" fill-opacity="0.21"/>
<path d="M1968.12 0.462646H1960.57V2266.75H1968.12V0.462646Z" fill="#626262" fill-opacity="0.21"/>
<path d="M2119.22 0.462646H2111.67V2266.75H2119.22V0.462646Z" fill="#626262" fill-opacity="0.21"/>
<path d="M79.3266 0.462646H71.7708V2266.75H79.3266V0.462646Z" fill="#626262" fill-opacity="0.21"/>
<path d="M230.434 0.462646H222.878V2266.75H230.434V0.462646Z" fill="#626262" fill-opacity="0.21"/>
<path d="M381.541 0.462646H373.986V2266.75H381.541V0.462646Z" fill="#626262" fill-opacity="0.21"/>
<path d="M532.639 0.462646H525.083V2266.75H532.639V0.462646Z" fill="#626262" fill-opacity="0.21"/>
<path d="M683.746 0.462646H676.19V2266.75H683.746V0.462646Z" fill="#626262" fill-opacity="0.21"/>
<path d="M834.844 0.462646H827.288V2266.75H834.844V0.462646Z" fill="#626262" fill-opacity="0.21"/>
<path d="M985.951 0.462646H978.395V2266.75H985.951V0.462646Z" fill="#626262" fill-opacity="0.21"/>
<path d="M1137.05 0.462646H1129.49V2266.75H1137.05V0.462646Z" fill="#626262" fill-opacity="0.21"/>
<path d="M1288.16 0.462646H1280.6V2266.75H1288.16V0.462646Z" fill="#626262" fill-opacity="0.21"/>
<path d="M1439.26 0.462646H1431.71V2266.75H1439.26V0.462646Z" fill="#626262" fill-opacity="0.21"/>
<path d="M1590.36 0.462646H1582.81V2266.75H1590.36V0.462646Z" fill="#626262" fill-opacity="0.21"/>
<path d="M1741.47 0.462646H1733.91V2266.75H1741.47V0.462646Z" fill="#626262" fill-opacity="0.21"/>
<path d="M1892.57 0.462646H1885.01V2266.75H1892.57V0.462646Z" fill="#626262" fill-opacity="0.21"/>
<path d="M2043.67 0.462646H2036.12V2266.75H2043.67V0.462646Z" fill="#626262" fill-opacity="0.21"/>
<path d="M2194.77 0.462646H2187.22V2266.75H2194.77V0.462646Z" fill="#626262" fill-opacity="0.21"/>
</g>
</g>
<defs>
<clipPath id="clip0_458_106">
<rect width="2194.68" height="2267" fill="white"/>
</clipPath>
<clipPath id="clip1_458_106">
<rect width="4533.09" height="2267" fill="white"/>
</clipPath>
</defs>
</svg>
